<?xml version="1.0" encoding="UTF-8" standalone="no"?>
<svg
   xmlns:osb="http://www.openswatchbook.org/uri/2009/osb"
   xmlns:dc="http://purl.org/dc/elements/1.1/"
   xmlns:cc="http://creativecommons.org/ns#"
   xmlns:rdf="http://www.w3.org/1999/02/22-rdf-syntax-ns#"
   xmlns:svg="http://www.w3.org/2000/svg"
   xmlns="http://www.w3.org/2000/svg"
   xmlns:sodipodi="http://sodipodi.sourceforge.net/DTD/sodipodi-0.dtd"
   xmlns:inkscape="http://www.inkscape.org/namespaces/inkscape"
   inkscape:version="1.0 (4035a4fb49, 2020-05-01)"
   sodipodi:docname="twice-v3.svg"
   id="svg22"
   version="1.1"
   width="2500"
   viewBox="38.1 38.5 457.5 497.9"
   height="2500">
  <metadata
     id="metadata28">
    <rdf:RDF>
      <cc:Work
         rdf:about="">
        <dc:format>image/svg+xml</dc:format>
        <dc:type
           rdf:resource="http://purl.org/dc/dcmitype/StillImage" />
        <dc:title />
      </cc:Work>
    </rdf:RDF>
  </metadata>
  <defs
     id="defs26">
    <linearGradient
       osb:paint="solid"
       id="linearGradient2787">
      <stop
         id="stop2785"
         offset="0"
         style="stop-color:#000000;stop-opacity:1;" />
    </linearGradient>
  </defs>
  <sodipodi:namedview
     inkscape:current-layer="svg22"
     inkscape:window-maximized="1"
     inkscape:window-y="-8"
     inkscape:window-x="-8"
     inkscape:cy="1602.5264"
     inkscape:cx="684.48884"
     inkscape:zoom="0.3404"
     showgrid="false"
     id="namedview24"
     inkscape:window-height="1057"
     inkscape:window-width="1920"
     inkscape:pageshadow="2"
     inkscape:pageopacity="0"
     guidetolerance="10"
     gridtolerance="10"
     objecttolerance="10"
     borderopacity="1"
     bordercolor="#666666"
     pagecolor="#ffffff"
     inkscape:document-rotation="0" />
  <path
     id="path857"
     d="m 234.58471,451.55812 c -2.45434,-0.27002 -7.31558,-1.19175 -10.80271,-2.04828 -33.17417,-8.14843 -50.47344,-25.6345 -57.71214,-58.33538 -1.2581,-5.68349 -1.32584,-7.18744 -1.29781,-28.81445 0.0329,-25.39776 0.0672,-25.77154 4.67804,-51.05429 5.84587,-32.05452 16.39135,-75.06054 30.09025,-122.71247 2.28344,-7.94298 2.80908,-11.54442 1.89482,-12.98227 -0.95098,-1.49558 -4.03533,-1.93791 -13.47399,-1.93231 -23.20571,0.0137 -47.95645,3.14854 -60.88628,7.71152 -27.29794,9.63353 -46.577594,30.92171 -53.681458,59.27393 -1.992006,7.9503 -2.469839,18.97052 -1.150376,26.53105 2.046572,11.7269 7.401704,22.2166 15.561876,30.48277 7.405048,7.50126 14.887648,11.80834 25.574868,14.72119 5.67113,1.5457 6.65469,2.05024 6.21754,3.18943 -0.60951,1.58836 -41.299613,34.9429 -46.697735,38.27913 l -2.261683,1.39778 -3.849369,-1.32851 c -17.655016,-6.0932 -28.683521,-21.07621 -31.974403,-43.43949 -1.287223,-8.74736 -0.901002,-24.41793 0.881295,-35.75756 5.762697,-36.66445 25.824992,-71.23067 58.455504,-100.71561 36.508211,-32.98882 77.862101,-53.56389 123.540931,-61.46614 4.666,-0.80719 20.5947,-2.92617 35.39713,-4.70885 45.42987,-5.47117 50.58873,-6.12455 60.26287,-7.63242 12.45066,-1.940629 28.05089,-5.092489 37.63644,-7.604059 29.22679,-7.657891 52.66656,-19.249764 68.8481,-34.04805 3.43415,-3.140598 7.80085,-7.117464 9.70375,-8.83748 L 433,46.6 l -0.002,8.685527 c -0.003,13.558684 -1.97134,31.139023 -4.66916,41.705314 -4.06408,15.917399 -11.4989,31.912069 -20.14422,43.336479 -4.22416,5.58206 -13.97145,14.97839 -19.82955,19.11556 -13.86591,9.79257 -28.7767,14.98659 -50.13745,17.46484 -8.07395,0.93674 -29.69647,2.0109 -40.72324,2.02305 -3.89475,0.004 -8.72152,0.17922 -10.72612,0.38875 -3.45618,0.36124 -3.72079,0.50138 -5.11411,2.70855 -3.24856,5.14604 -33.30439,73.61769 -42.17502,96.08095 -10.37066,26.26181 -16.65161,49.17896 -19.82118,72.32091 -1.36944,9.99881 -1.39715,28.17913 -0.0539,35.42071 2.72973,14.71678 9.588,25.64382 20.02828,31.91029 9.35893,5.61744 20.95124,6.46624 28.24653,2.06827 3.59697,-2.16843 8.65326,-6.46511 9.52507,-8.09408 0.64515,-1.20549 0.61976,-1.26656 -5.6912,-13.68546 -4.51964,-8.89387 -8.70672,-21.24724 -10.29675,-30.37917 -0.47145,-2.70758 -0.72092,-10.72036 -0.72092,-23.15531 V 325.5002 l 2.15847,-6.23184 c 4.3353,-12.51663 9.88471,-21.8228 17.39173,-29.16529 12.57056,-12.29506 29.02638,-16.55163 47.36746,-12.25234 13.71087,3.21392 22.51836,12.14215 26.51576,26.87925 1.19114,4.39134 1.34676,6.2737 1.33029,16.08962 -0.0169,10.08146 -0.17066,11.76185 -1.65121,18.04859 -2.40008,10.19122 -5.74607,19.44995 -10.60402,29.34259 -6.30184,12.83299 -11.55614,20.42097 -24.28021,35.06414 -2.04663,2.35531 -3.52364,4.60301 -3.52364,5.36223 0,1.8453 4.68958,5.83359 9.65376,8.21013 14.26372,6.8286 29.12829,2.07114 45.65923,-14.61336 17.03367,-17.19193 27.58762,-40.64131 30.68993,-68.18866 0.79637,-7.07138 0.78473,-25.82323 -0.02,-32.24066 -2.26178,-18.03695 -7.29384,-29.71691 -19.32633,-44.85852 -3.92247,-4.93604 -6.09846,-8.84739 -6.69703,-12.03803 -0.30838,-1.64385 -0.0503,-2.88921 1.13581,-5.47992 3.33079,-7.27542 8.92171,-12.56537 17.5974,-16.65015 14.8413,-6.98772 25.93768,-4.91565 36.48107,6.81226 1.71471,1.90734 3.32896,4.00352 3.58725,4.65819 0.73996,1.8755 8.53837,9.94469 11.51904,11.91899 3.58294,2.37327 6.02733,2.78352 9.25054,1.55255 2.03649,-0.77774 2.82341,-1.50107 3.77775,-3.47249 1.53789,-3.17684 1.50979,-4.10584 -0.23226,-7.67889 -1.63381,-3.35108 -3.42153,-5.53774 -5.72948,-7.00808 -2.20313,-1.40356 -2.02544,-2.33665 0.84028,-4.41256 7.47587,-5.4155 18.64231,-4.33902 24.71486,2.38256 3.52875,3.90592 5.20387,8.18908 5.48831,14.03336 0.46364,9.52585 -3.31667,19.02317 -10.34152,25.98116 -4.59226,4.54856 -10.44615,8.74687 -13.53474,9.70688 -8.92746,2.7749 -8.77453,2.49809 -8.78116,15.89377 -0.011,22.20861 -3.04492,40.29457 -10.48211,62.48595 -7.26532,21.67857 -20.68896,47.36692 -32.20073,61.62138 -15.21489,18.83986 -35.34154,31.89406 -52.86821,34.29047 -6.43385,0.87969 -18.98083,0.77197 -25.55717,-0.21941 -11.3625,-1.7129 -19.20064,-5.56573 -29.25139,-14.37854 -8.77118,-7.69084 -8.25289,-7.43058 -11.25329,-5.65112 -1.37279,0.81416 -5.26048,3.47464 -8.63931,5.91218 -6.55033,4.72553 -16.64631,10.05573 -22.71236,11.99105 -7.14138,2.27841 -16.1414,3.17925 -23.58306,2.36048 z m 68.18753,-73.87085 c 3.6464,-4.78068 15.25514,-31.12792 17.02858,-38.6481 2.36488,-10.02828 -0.83733,-17.76826 -8.3709,-20.233 -3.55628,-1.16349 -8.05042,0.29241 -11.83757,3.83485 -4.20449,3.93279 -5.84706,8.13921 -6.32787,16.20469 -0.9008,15.11134 1.4514,32.86572 5.15008,38.87257 1.48129,2.40569 2.50467,2.39842 4.35768,-0.031 z"
     style="fill:#ffffff;stroke:#000000;stroke-width:5.9748;stroke-miterlimit:4;stroke-dasharray:none;stroke-opacity:1" />
  <path
     id="path2793"
     d="m 195.06134,529.85907 c -0.90575,-0.23855 -1.01009,-1.97473 -1.17016,-19.47165 -0.20121,-21.99571 -0.0463,-21.34203 -5.221,-22.02847 -1.55806,-0.20669 -3.11064,-0.71053 -3.45018,-1.11964 -0.89069,-1.07321 -1.02112,-8.24767 -0.16557,-9.10753 1.02829,-1.03342 8.00387,-1.32007 20.30744,-0.83446 l 10.87902,0.42937 v 5.20226 5.20226 l -2.19403,0.033 c -1.20672,0.0181 -3.10579,0.34725 -4.22014,0.73133 -1.61615,0.55703 -2.12172,1.11267 -2.49866,2.7461 -0.25991,1.12627 -0.63822,10.2754 -0.84068,20.33141 l -0.36813,18.28362 -5.03174,-0.0679 c -2.76746,-0.0373 -5.47924,-0.18572 -6.02617,-0.32975 z"
     style="fill:#ffffff;stroke:#000000;stroke-width:3.9832;stroke-miterlimit:4;stroke-dasharray:none;stroke-opacity:1" />
  <path
     id="path2795"
     d="m 244.19028,529.63147 c -0.5727,-0.33373 -1.64659,-2.675 -2.47418,-5.39417 -1.73028,-5.68504 -11.43338,-44.98578 -11.43338,-46.30894 0,-0.76963 0.96049,-0.91361 6.09456,-0.91361 h 6.09455 l 1.19807,5.11941 c 0.65894,2.81569 1.60812,7.75226 2.10928,10.97019 0.50117,3.21791 1.05864,6.5775 1.2388,7.46573 0.37326,1.84022 1.68172,3.35818 2.89471,3.35818 1.28211,0 2.96232,-3.90601 4.02685,-9.36122 2.27732,-11.67026 3.41727,-16.12666 4.3028,-16.82095 1.10107,-0.86328 6.18204,-0.97473 7.68827,-0.16863 1.45743,0.77999 2.12818,2.70445 3.88232,11.13882 1.57188,7.55792 3.42345,13.79095 4.47537,15.06572 1.69666,2.05606 2.22621,0.6821 5.24097,-13.59809 1.2902,-6.11134 2.45828,-11.29349 2.59574,-11.51591 0.8003,-1.2949 11.1474,-2.04685 12.30036,-0.89389 0.33546,0.33547 -8.0658,34.75553 -10.9535,44.8766 -0.96404,3.37881 -2.1867,6.47241 -2.71705,6.87465 -0.54619,0.41425 -2.64295,0.73133 -4.83614,0.73133 -5.90509,0 -5.81192,0.15129 -8.79586,-14.28303 -0.99202,-4.79864 -2.19,-9.47193 -2.66221,-10.3851 -1.89116,-3.6571 -5.10316,-0.73839 -5.85684,5.32203 -0.60341,4.85224 -3.54939,16.32325 -4.60641,17.93647 -0.82677,1.26182 -1.33634,1.40778 -4.8594,1.39185 -2.16469,-0.01 -4.39114,-0.28315 -4.94768,-0.60744 z"
     style="fill:#ffffff;stroke:#000000;stroke-width:3.9832;stroke-miterlimit:4;stroke-dasharray:none;stroke-opacity:1" />
  <path
     id="path2797"
     d="m 308.68202,523.0895 c 0,-3.62015 -0.17477,-15.46794 -0.38721,-26.32843 l -0.38629,-19.74632 h 6.23799 6.23799 v 26.32844 26.32843 h -5.85078 -5.85077 v -6.58212 z"
     style="fill:#ffffff;stroke:#000000;stroke-width:3.9832;stroke-miterlimit:4;stroke-dasharray:none;stroke-opacity:1" />
  <path
     id="path2799"
     d="m 353.80763,529.01252 c -6.26585,-1.04087 -12.54011,-5.25161 -15.6998,-10.53636 -2.6507,-4.4334 -3.68152,-9.01063 -3.68152,-16.34745 0,-5.95608 0.0915,-6.41711 2.04928,-10.33055 8.14907,-16.28904 29.20213,-19.67956 42.10141,-6.78028 5.06808,5.06808 7.71789,10.31197 6.15958,12.18961 -0.51718,0.62315 -1.92221,0.87001 -4.95195,0.87001 -4.61376,0 -4.5626,0.0245 -11.13291,-5.33365 -3.26322,-2.66119 -6.40032,-4.03992 -9.13499,-4.01472 -1.9636,0.0181 -6.34948,2.10546 -8.34347,3.97091 -5.15689,4.82447 -5.96327,14.03644 -1.75964,20.10227 2.37626,3.42896 4.92431,4.72213 9.93848,5.04391 5.30975,0.34076 7.12328,-0.34546 9.91423,-3.75146 2.62094,-3.19851 4.28078,-4.0582 8.74818,-4.53099 4.15241,-0.43947 6.94348,0.18998 7.22061,1.62839 0.10983,0.57004 -0.61887,2.69916 -1.61931,4.73137 -2.06312,4.19076 -7.21218,9.36106 -11.25754,11.30394 -4.54039,2.18064 -11.90393,2.88919 -18.55064,1.78505 z"
     style="fill:#ffffff;stroke:#000000;stroke-width:3.9832;stroke-miterlimit:4;stroke-dasharray:none;stroke-opacity:1" />
  <path
     id="path2801"
     d="m 400.53995,529.68433 c -0.75394,-0.47631 -0.89842,-4.08226 -1.0252,-25.58812 -0.0905,-15.34956 0.0707,-25.3732 0.41682,-25.91131 0.46868,-0.72873 2.8548,-0.9106 14.06576,-1.07202 l 13.50131,-0.19442 -0.16885,5.46009 -0.16886,5.46011 -2.63284,0.14063 c -7.89205,0.42152 -10.11516,0.85264 -11.49093,2.22842 -1.52665,1.52664 -1.77954,3.5903 -0.63228,5.15928 0.57796,0.79041 2.21078,1.162 7.16719,1.63106 3.53029,0.33409 6.72934,0.9111 7.10902,1.28225 0.37966,0.37114 0.73215,1.99124 0.78334,3.6002 0.2266,7.12588 0.0335,7.31345 -7.52857,7.31345 -7.03035,0 -8.28374,0.64787 -8.2705,4.27497 0.005,1.34937 0.22091,2.78732 0.47994,3.19544 0.7295,1.14934 4.07485,1.89003 8.57593,1.89879 6.85755,0.0134 6.73224,-0.0915 6.73224,5.63297 0,4.74229 -0.054,4.93992 -1.50079,5.48998 -1.92765,0.73289 -24.25231,0.73134 -25.41273,-0.002 z"
     style="fill:#ffffff;stroke:#000000;stroke-width:3.9832;stroke-miterlimit:4;stroke-dasharray:none;stroke-opacity:1" />
</svg>
